<svg xmlns="http://www.w3.org/2000/svg" width="24" height="24" viewBox="0 0 24 24">
    <defs>
        <style>
            .cls-2{fill:none;stroke:#fff;stroke-width:2px}
        </style>
    </defs>
    <g id="icon_channel" transform="translate(-885 -11)">
        <path id="container" fill="none" d="M0 0H24V24H0z" transform="translate(885 11)"/>
        <g id="icon" transform="translate(172.889 -330.124)">
            <path id="빼기_2" d="M719.657 358.286a7.384 7.384 0 0 1-.043-.793 7.121 7.121 0 0 1 3.079-5.861" class="cls-2" transform="translate(-2.295 -2.733)"/>
            <path id="빼기_2-2" d="M731.821 370.29a7.136 7.136 0 0 1-7.087-.3" class="cls-2" transform="translate(-4.102 -9.211)"/>
            <path id="빼기_2-3" d="M735.992 351.094a7.131 7.131 0 0 1 3.637 6.212 7.224 7.224 0 0 1-.043.785" class="cls-2" transform="translate(-8.076 -2.543)"/>
            <circle id="타원_241" cx="3.882" cy="3.882" r="3.882" class="cls-2" transform="translate(720.229 343.889)"/>
            <circle id="타원_243" cx="3.882" cy="3.882" r="3.882" class="cls-2" transform="translate(727.346 355.536)"/>
            <circle id="타원_244" cx="3.882" cy="3.882" r="3.882" class="cls-2" transform="translate(713.111 355.536)"/>
        </g>
    </g>
</svg>
